<svg height="150" width="150">
    <rect x="0" y="0" width="150" height="150" fill="none" stroke="#000" stroke-width="1"/>

    <defs>
        <g id="center">
            <rect x="0" y="0" width="70" height="70" fill="#fff" stroke="none"/>
        </g>

        <g id="corner">
            <rect x="1" y="1" width="40" height="40" fill="#fff" stroke="none"/>
            <line x1="0" y1="0" x2="30" y2="30" stroke="#000"/>
            <line x1="30" y1="30" x2="40" y2="30" stroke="#000"/>
            <line x1="30" y1="30" x2="30" y2="40" stroke="#000"/>
        </g>

        <g id="wall">
            <rect x="0" y="1" width="70" height="40" fill="#fff" stroke="none"/>
            <line x1="0" y1="30" x2="70" y2="30" stroke="#000"/>
        </g>

        <g id="exit">
            <rect x="0" y="1" width="70" height="40" fill="#fff" stroke="none"/>
            <polyline points="0,30 20,30 10,10 60,10 50,30 70,30" stroke="#000" fill="none"/>
            <polygon points="20,30 20,10 10,10" stroke="#000" fill="#c0c0c0"/>
            <polygon points="50,30 50,10 60,10" stroke="#000" fill="#c0c0c0"/>
        </g>

    </defs>

    <!-- Center -->
    <use x="40" y="40" xlink:href="#center"/>

    <!-- Corners -->
    <use x="0" y="0" xlink:href="#corner"/>
    <use x="0" y="-110" xlink:href="#corner" transform="rotate(90, 20, 20)"/>
    <use x="-110" y="0" xlink:href="#corner" transform="rotate(-90, 20, 20)"/>
    <use x="-110" y="-110" xlink:href="#corner" transform="rotate(180, 20, 20)"/>

    <!-- Walls -->
    <!--
        <use x="40" y="0" xlink:href="#wall" />
        <use x="70" y="-40" xlink:href="#wall" transform="rotate(90, 70, 40)"/>
        <use x="30" y="-70" xlink:href="#wall" transform="rotate(180, 70, 40)"/>
        <use x="0" y="-30" xlink:href="#wall" transform="rotate(-90, 70, 40)"/>
    -->

    <!-- Exits -->

    <use x="40" y="0" xlink:href="#exit" onclick="goNorth()"/>
    <use x="70" y="-40" xlink:href="#exit" transform="rotate(90, 70, 40)" onclick="goEast()"/>
    <use x="30" y="-70" xlink:href="#exit" transform="rotate(180, 70, 40)" onclick="goSouth()"/>
    <use x="0" y="-30" xlink:href="#exit" transform="rotate(-90, 70, 40)" onclick="goWest()"/>

</svg>